<?xml version="1.0" encoding="utf-8"?>
<!-- Generator: Adobe Illustrator 18.1.1, SVG Export Plug-In . SVG Version: 6.00 Build 0)  -->
<svg version="1.1" id="Layer_1" xmlns="http://www.w3.org/2000/svg" xmlns:xlink="http://www.w3.org/1999/xlink" x="0px" y="0px"
	 viewBox="0 0 523.5 327.9" enable-background="new 0 0 523.5 327.9" xml:space="preserve">
<g>
	<g>
		<g opacity="0.1">
			<path d="M0,83.7v239c0,0.6,0.4,1,1,1h241c0.6,0,1-0.4,1-1v-239c0-0.6-0.4-1-1-1H1C0.4,82.7,0,83.1,0,83.7z M208.9,128.8
				c-6.4,0-11.6-5.2-11.6-11.6c0-6.4,5.2-11.6,11.6-11.6s11.6,5.2,11.6,11.6C220.5,123.6,215.3,128.8,208.9,128.8z"/>
			<path d="M151,209.7c0-1.1-0.9-2.1-2.1-2.1c-0.5,0-1,0.2-1.4,0.5c-5.4,4.9-14.7,9.2-25.9,9.2h0c-11.2,0-20.2-4.5-25.9-9.2
				c-0.4-0.3-1-0.5-1.5-0.5c-1.3,0-2.1,1.1-2.1,2.4c0,1,0.7,1.8,1.2,2.6c3.2,4.8,13.2,13,28.1,13h0.2c15,0,24.9-8.2,28.1-13
				C150.3,211.8,151,210.7,151,209.7z"/>
			<path d="M165.9,247.3c-3.8-2.2-7.4-5.8-9.1-10.9c-0.3-1,0-1.8,0.7-2.4c11-8.5,18-20.9,18-34.7c0-25.7-24.2-46.6-54-46.6
				c-29.8,0-54,20.8-54,46.6c0,25.7,24.2,46.6,54,46.6c3.9,0,7.7-0.4,11.4-1c0.9-0.2,1.6,0,2.2,0.4c7.4,4.5,18.4,8.3,28,8.3
				c3.1,0,4.3-2,4.3-3.8C167.4,248.7,166.8,247.8,165.9,247.3z M151.4,242.8c0.2,0.2,0.3,0.4,0.3,0.6c0,0.3-0.3,0.5-0.7,0.5
				c-2.7,0-11-4.5-15.4-8.2c-0.6-0.5-1.4-0.7-2.6-0.4c-3.7,0.8-7.5,1.2-11.5,1.2c-24.8,0-44.9-16.6-44.9-37.1
				c0-20.5,20.1-37.1,44.9-37.1c24.8,0,44.9,16.6,44.9,37.1c0,12.2-7.2,23.1-18.2,29.8c-0.7,0.5-1.5,1.3-1.5,2.4
				C146.7,233.8,148.7,239.2,151.4,242.8z"/>
		</g>
		<g>
			<g>
				<path fill="#205081" d="M0,77.7v239c0,0.6,0.4,1,1,1h241c0.6,0,1-0.4,1-1v-239c0-0.6-0.4-1-1-1H1C0.4,76.7,0,77.1,0,77.7z
					 M208.9,122.8c-6.4,0-11.6-5.2-11.6-11.6c0-6.4,5.2-11.6,11.6-11.6s11.6,5.2,11.6,11.6C220.5,117.6,215.3,122.8,208.9,122.8z"/>
				<g>
					<path fill="#FFFFFF" d="M151,203.7c0-1.1-0.9-2.1-2.1-2.1c-0.5,0-1,0.2-1.4,0.5c-5.4,4.9-14.7,9.2-25.9,9.2h0
						c-11.2,0-20.2-4.5-25.9-9.2c-0.4-0.3-1-0.5-1.5-0.5c-1.3,0-2.1,1.1-2.1,2.4c0,1,0.7,1.8,1.2,2.6c3.2,4.8,13.2,13,28.1,13h0.2
						c15,0,24.9-8.2,28.1-13C150.3,205.8,151,204.7,151,203.7z"/>
					<path fill="#FFFFFF" d="M165.9,241.3c-3.8-2.2-7.4-5.8-9.1-10.9c-0.3-1,0-1.8,0.7-2.4c11-8.5,18-20.9,18-34.7
						c0-25.7-24.2-46.6-54-46.6c-29.8,0-54,20.8-54,46.6c0,25.7,24.2,46.6,54,46.6c3.9,0,7.7-0.4,11.4-1c0.9-0.2,1.6,0,2.2,0.4
						c7.4,4.5,18.4,8.3,28,8.3c3.1,0,4.3-2,4.3-3.8C167.4,242.7,166.8,241.8,165.9,241.3z M151.4,236.8c0.2,0.2,0.3,0.4,0.3,0.6
						c0,0.3-0.3,0.5-0.7,0.5c-2.7,0-11-4.5-15.4-8.2c-0.6-0.5-1.4-0.7-2.6-0.4c-3.7,0.8-7.5,1.2-11.5,1.2
						c-24.8,0-44.9-16.6-44.9-37.1c0-20.5,20.1-37.1,44.9-37.1c24.8,0,44.9,16.6,44.9,37.1c0,12.2-7.2,23.1-18.2,29.8
						c-0.7,0.5-1.5,1.3-1.5,2.4C146.7,227.8,148.7,233.2,151.4,236.8z"/>
				</g>
			</g>
		</g>
	</g>
	<path opacity="0.2" d="M208.9,122.8c-6.4,0-11.6-5.2-11.6-11.6s5.2-11.6,11.6-11.6s11.6,5.2,11.6,11.6S215.3,122.8,208.9,122.8z
		 M208.9,90.9c-11.2,0-20.3,9.1-20.3,20.3s9.1,20.3,20.3,20.3c11.2,0,20.3-9.1,20.3-20.3S220.1,90.9,208.9,90.9z"/>
	<g>
		<g>
			<path opacity="0.5" fill="#999999" d="M332.2,119.7c-5.2,4.6-13.1,4.1-17.6-1c-4.6-5.2-4.1-13.1,1-17.6c5.2-4.6,13.1-4.1,17.6,1
				C337.8,107.2,337.3,115.1,332.2,119.7z"/>
			<path fill="#E5E5E5" d="M394.3,76.2c-26.4-29.7-71.9-32.3-101.7-5.9c-29.7,26.4-32.3,71.9-5.9,101.7c20,22.4,50.8,29.4,77.5,20.1
				c3,1,5.4,3.5,6.3,6.6l2.9,9.6c0.5,1.6,2.5,2.2,3.8,1.1l6-5.3l108,121.4c0.3,0.4,0.8,0.6,1.4,0.7l27.4,1.8
				c1.1,0.1,2.1-0.8,2.1-1.9l1.4-27.4c0-0.5-0.2-1-0.5-1.4L415,175.8l6-5.3c1.3-1.1,0.9-3.2-0.6-3.9l-9.2-4c-3-1.3-5.1-3.9-5.8-7
				C417.6,130.1,414.2,98.6,394.3,76.2z M332.2,114.7c-5.2,4.6-13.1,4.1-17.6-1c-4.6-5.2-4.1-13.1,1-17.6c5.2-4.6,13.1-4.1,17.6,1
				C337.8,102.2,337.3,110.1,332.2,114.7z"/>
			<path fill="#D1D1D1" d="M391,180.9l130.4,146.5c0.4-0.3,0.6-0.8,0.7-1.4l0.7-13.4L405.4,180.7l-12.4-3.1
				C391.1,177.1,389.7,179.4,391,180.9z"/>
			<path fill="#F9F9F9" d="M406.8,169.1l-1.3,11.7l117.3,131.8l0.7-14c0-0.5-0.2-1-0.5-1.4L415,175.8l-6.5-7.2
				C407.9,167.9,406.9,168.2,406.8,169.1z"/>
			<path fill="#D8D8D8" d="M297.9,76.2c-26.5,23.6-28.9,64.2-5.3,90.7s64.2,28.9,90.7,5.3c26.5-23.6,28.9-64.2,5.3-90.7
				S324.4,52.6,297.9,76.2z M332.2,114.7c-5.2,4.6-13.1,4.1-17.6-1c-4.6-5.2-4.1-13.1,1-17.6c5.2-4.6,13.1-4.1,17.6,1
				C337.8,102.2,337.3,110.1,332.2,114.7z"/>
			<path fill="#C9C9C9" d="M310.2,90.1c-8.5,7.5-9.2,20.5-1.7,28.9s20.5,9.2,28.9,1.7c8.5-7.5,9.2-20.5,1.7-28.9
				S318.7,82.6,310.2,90.1z M332.2,114.7c-5.2,4.6-13.1,4.1-17.6-1c-4.6-5.2-4.1-13.1,1-17.6c5.2-4.6,13.1-4.1,17.6,1
				C337.8,102.2,337.3,110.1,332.2,114.7z"/>
		</g>
	</g>
	<g>
		<path opacity="0.2" d="M270,138.5c0.7,3.3,1.6,6.6,2.7,9.8c21.3-2.2,39.9-13.7,51.6-30.4c-3.5,0.1-6.9-1.2-9.5-3.9
			C304.4,127.8,288.3,137.2,270,138.5z"/>
		<path opacity="0.2" d="M243,134.5c-9.4-3.7-17.7-9.6-24.3-17.1c-1.9,2.9-5,5-8.6,5.3c8.6,10.3,19.9,18.1,32.9,22.4V134.5z"/>
		<g>
			<path fill="#D1D1D1" d="M265.3,133.7c-24.1,0-45-13.9-55.2-34.1c-0.4,0-0.8-0.1-1.2-0.1c-3.3,0-6.2,1.3-8.3,3.5
				c11.6,24,36.3,40.6,64.7,40.6c30.9,0,57.3-19.6,67.4-47.1c-2.5-2.6-5.9-3.8-9.3-3.7C314.9,116.7,292,133.7,265.3,133.7z"/>
			<path fill="#D1D1D1" d="M203.7,76.7c-0.1-1.6-0.2-3.2-0.2-4.9c0-34.1,27.7-61.9,61.9-61.9c27.9,0,51.5,18.5,59.2,43.9
				c3.3-0.7,6.6-1.2,10-1.5C326,22.2,298.2,0,265.3,0c-39.6,0-71.9,32.2-71.9,71.9c0,1.6,0.1,3.2,0.2,4.9H203.7z"/>
		</g>
		<g>
			<path fill="#E5E5E5" d="M265.3,139c-26.8,0-50-15.8-60.8-38.6c-1.5,0.6-2.8,1.5-3.9,2.6c11.6,24,36.3,40.6,64.7,40.6
				c30.9,0,57.3-19.6,67.4-47.1c-1.2-1.2-2.5-2.1-4-2.7C319.6,120.1,294.7,139,265.3,139z"/>
			<path fill="#E5E5E5" d="M198.3,76.7c-0.1-1.6-0.2-3.2-0.2-4.9c0-37,30.1-67.2,67.2-67.2c30.5,0,56.2,20.4,64.4,48.2
				c1.6-0.2,3.1-0.4,4.7-0.5C326,22.2,298.2,0,265.3,0c-39.6,0-71.9,32.2-71.9,71.9c0,1.6,0.1,3.2,0.2,4.9H198.3z"/>
		</g>
	</g>
</g>
</svg>
