<?xml version="1.0" encoding="UTF-8"?>
<!-- Generator: Adobe Illustrator 18.0.0, SVG Export Plug-In . SVG Version: 6.00 Build 0)  -->
<!DOCTYPE svg PUBLIC "-//W3C//DTD SVG 1.1//EN" "http://www.w3.org/Graphics/SVG/1.1/DTD/svg11.dtd">
<svg version="1.1" id="Layer_1" xmlns="http://www.w3.org/2000/svg" xmlns:xlink="http://www.w3.org/1999/xlink" x="0px" y="0px" viewBox="0 0 133 24.5" enable-background="new 0 0 133 24.5" xml:space="preserve">
<path id="apple_1_" fill-rule="evenodd" clip-rule="evenodd" fill="#A1A3A6" d="M16.6,12.3c0,3.3,3.1,4.4,3.2,4.5  c0,0.1-0.5,1.6-1.6,3.1c-1,1.3-2,2.7-3.6,2.7c-1.6,0-2.1-0.9-3.9-0.9c-1.8,0-2.4,0.8-3.9,0.9C5.2,22.7,4,21.2,3,19.8  c-2-2.7-3.6-7.7-1.5-11.1C2.5,7,4.4,6,6.4,5.9c1.5,0,3,1,3.9,1c0.9,0,2.7-1.2,4.5-1c0.8,0,2.9,0.3,4.3,2.2  C19.1,8.1,16.6,9.5,16.6,12.3z M10.1,5.6C9.9,4.4,10.6,3,11.4,2.2c0.9-0.9,2.3-1.6,3.5-1.7c0.2,1.3-0.4,2.6-1.2,3.5  C12.8,5,11.5,5.7,10.1,5.6z"/>
<path id="android_1_" fill-rule="evenodd" clip-rule="evenodd" fill="#A1A3A6" d="M53.7,16.9c-0.7,0-1.2-0.6-1.2-1.3v-5.5  c0-0.7,0.6-1.3,1.2-1.3c0.7,0,1.2,0.6,1.2,1.3v5.5C54.9,16.3,54.4,16.9,53.7,16.9z M50.3,19.6h-0.9c0,0.1,0,0.2,0,0.4V20v0.4v2.2  c0,0.7-0.6,1.3-1.2,1.3c-0.7,0-1.2-0.6-1.2-1.3v-2.2V20V20c0-0.1,0-0.2,0-0.4h-2.3c0,0.1,0,0.2,0,0.4V20v0.4v2.2  c0,0.7-0.6,1.3-1.2,1.3c-0.7,0-1.2-0.6-1.2-1.3v-2.2V20V20c0-0.1,0-0.2,0-0.4h-0.9c-0.7,0-1.3-0.6-1.3-1.4v-7.5V9.9V8.9h0.1h11.4  h0.1v1.1v0.9v7.5C51.6,19,51,19.6,50.3,19.6z M42.9,3.7l-0.2-0.4L42.5,3l-0.5-0.8c-0.1-0.1,0-0.2,0.1-0.3c0.1-0.1,0.2,0,0.3,0.1  l0.6,0.9l0.2,0.4l0.2,0.4c0.7-0.3,1.6-0.5,2.5-0.5c0.9,0,1.7,0.2,2.5,0.5l0.2-0.4l0.2-0.4L49.3,2c0.1-0.1,0.2-0.1,0.3-0.1  c0.1,0.1,0.1,0.2,0.1,0.3L49.1,3l-0.2,0.4l-0.2,0.4c1.8,0.8,3,2.4,3,4.3H40C40,6.2,41.2,4.6,42.9,3.7z M48.3,6.3  c0.3,0,0.6-0.3,0.6-0.6c0-0.4-0.3-0.6-0.6-0.6c-0.3,0-0.6,0.3-0.6,0.6C47.7,6,47.9,6.3,48.3,6.3z M43.3,6.3c0.3,0,0.6-0.3,0.6-0.6  c0-0.4-0.3-0.6-0.6-0.6c-0.3,0-0.6,0.3-0.6,0.6C42.7,6,43,6.3,43.3,6.3z M37.9,16.9c-0.7,0-1.2-0.6-1.2-1.3v-5.5  c0-0.7,0.6-1.3,1.2-1.3c0.7,0,1.2,0.6,1.2,1.3v5.5C39.1,16.3,38.6,16.9,37.9,16.9z"/>
<g>
	<g>
		<path fill="#FFFFFF" d="M96.1,18.2c3.2,0,3.2-5,0-5C92.9,13.2,92.9,18.2,96.1,18.2L96.1,18.2z"/>
	</g>
</g>
<g>
	<g>
		<path fill-rule="evenodd" clip-rule="evenodd" fill="#A1A3A6" d="M130.6,16.1c-0.3,1.2-1.8,3.8-2.6,5c-0.2,0.3-0.4,0.7-0.6,1.1    c-0.1,0.3-0.3,0.5-0.6,0.7c-0.5,0.2-1,0-1.4-0.1c-0.5-0.1-1.1-0.2-1.6-0.2c-1.1,0-2.2,0.1-3.3,0.3c-0.2,0.1-0.5,0.2-0.7,0.1    c-0.2-0.1-0.4-0.3-0.5-0.5c-0.5-0.5-0.9-1.1-1.3-1.7c-0.4-0.7-0.9-1.4-1.2-2.1c-0.2-0.3-0.3-0.6-0.5-0.9c-0.2-0.4-0.4-0.7-0.5-1.1    c-0.3-1,0.2-2.1,0.6-3c0.4-1,1-2,1.6-3c0.2-0.2,0.3-0.5,0.5-0.7c0.3-0.3,0.6-0.7,0.8-1.1c0.5-1,0.2-2.1,0.2-3.2    c0-0.8-0.1-1.7,0-2.5c0.1-1,0.5-1.8,1.4-2.3c1.7-0.9,3.1-0.4,3.6-0.1c0.2,0.1,0.7,0.4,1.1,0.8c0.6,0.7,0.9,1.7,0.9,2.6    c0,0.6,0,1.1,0.1,1.7c0.1,0.5,0.2,1.1,0.4,1.6c0.4,1,1,1.8,1.6,2.7c0.1,0.2,0.2,0.3,0.4,0.5C129.8,12.3,130.9,14.7,130.6,16.1z"/>
		<path fill-rule="evenodd" clip-rule="evenodd" fill="#FFFFFF" d="M121.5,8.7c-0.6,0-1.4-1.6-1.4-0.9C120,8.3,120,8.3,120,8.9    c0,0.3-0.2,0.5-0.3,0.7c-0.1,0.3-0.3,0.5-0.4,0.8c-0.3,0.5-0.5,1-0.8,1.6c-0.3,0.6-0.5,1.3-0.7,1.9c-0.2,0.6-0.4,1.3-0.4,2    c0,0.2,0,0.4,0,0.7c0,0.2,0.1,0.3,0.3,0.4c0.3,0.2,0.6,0.4,1,0.8c0.5,0.4,1.4,1.1,1.5,1.3c0.1,0.2,0.3,0.6,0,0.9    c-0.2,0.3-1,0.3-1,0.3s0.7,0.8,0.8,1c0.1,0.1,0.8,0.7,2.8,0.3c1.2-0.2,2.1-0.9,2.7-1.5c0.8-0.8,0.9-1.1,1.1-1.5    c0.2-0.6,0.3-1,0.4-1.3c0.4-1.7,0-3.4-0.6-5c-0.4-1-0.8-2-1.3-2.9c-0.1-0.2-0.2-0.4-0.3-0.6c0-0.2-0.1-0.3-0.2-0.5    c-0.1-0.3-0.3-0.6-0.7-0.6C123.1,7.4,122.4,8.7,121.5,8.7z"/>
		<path fill-rule="evenodd" clip-rule="evenodd" fill="#B8B9BB" d="M130.6,17.2c0.2,0.2,0.1,0.5,0.1,0.7c0,0.3,0.1,0.6,0.3,0.8    c0.3,0.4,0.6,0.6,1,0.9c0.2,0.1,0.5,0.3,0.5,0.6c0,0.2,0,0.3-0.1,0.5c-0.2,0.3-0.6,0.5-1,0.7c-0.4,0.2-0.8,0.5-1.2,0.7    c-0.9,0.6-1.2,0.9-1.5,1.2c-0.4,0.4-0.9,0.6-1.5,0.6c-0.7,0-1-0.1-1.2-0.3c-0.2-0.2-0.4-0.6-0.4-1.3c0-0.7,0.2-1.3,0.3-1.9    c0.1-0.5,0.1-1,0.1-1.4c0-0.2,0-0.5,0-0.7c0-0.2,0-0.5,0-0.7c0-0.2,0.1-0.4,0.3-0.5c0.2-0.1,0.4-0.1,0.6-0.1    c0.3,0,0.4,0.1,0.4,0.4c0,0.3,0.1,0.6,0.3,0.8c0.3,0.3,0.8,0.4,1.2,0.3c0.4-0.1,0.8-0.5,1-0.8c0.1-0.2,0.3-0.4,0.5-0.4    C130.3,17,130.5,17.1,130.6,17.2z"/>
		<path fill-rule="evenodd" clip-rule="evenodd" fill="#B8B9BB" d="M114.7,17.9c-0.4,0.3-1.4,0.3-1.7,0.6c-0.3,0.3,0,0.8,0,1.8    c0,0.4-0.1,0.7-0.1,0.9c-0.1,0.3-0.1,0.5,0,0.7c0.2,0.4,0.6,0.5,2.7,0.9c1.1,0.2,2.2,0.9,2.9,0.9c0.7,0.1,0.9-0.2,1.3-0.6    c0.4-0.4,0.6-0.3,0.6-1.1c0-0.9-0.6-1.1-1.2-2.1c-0.6-1-0.7-1.2-1.1-1.8c-0.4-0.6-1.2-1.8-1.7-1.8c-0.4,0-0.6,0.2-0.8,0.4    C115.4,17,115.1,17.6,114.7,17.9L114.7,17.9z"/>
		<path fill-rule="evenodd" clip-rule="evenodd" fill="#FFFFFF" d="M120.8,6.5c0.4-0.1,0.5-0.5,0.6-0.8c0.2-0.5,0.1-1-0.3-1.4    c-0.2-0.2-0.4-0.4-0.7-0.3c-0.3,0.1-0.5,0.4-0.5,0.6c-0.1,0.4-0.1,0.9,0.1,1.3C120.1,6.2,120.3,6.7,120.8,6.5z"/>
		<path fill-rule="evenodd" clip-rule="evenodd" fill="#A1A3A6" d="M120.5,4.7c0.1,0,0.2,0,0.3,0.1c0.1,0.1,0.2,0.3,0.3,0.4    c0,0.3,0,0.9-0.3,0.9c-0.5,0-0.7-0.7-0.6-1c0-0.1,0.1-0.3,0.2-0.4C120.4,4.7,120.4,4.7,120.5,4.7z"/>
		<path fill-rule="evenodd" clip-rule="evenodd" fill="#FFFFFF" d="M123.6,6.6c1.1-0.1,1.3-1.3,0.9-2.2c-0.1-0.3-0.3-0.5-0.6-0.6    c-0.5-0.2-1,0-1.3,0.5c-0.4,0.6-0.2,1.3,0.1,1.9C122.9,6.4,123.5,6.6,123.6,6.6z"/>
		<path fill-rule="evenodd" clip-rule="evenodd" fill="#A1A3A6" d="M123.5,4.7c0.2,0,0.3,0.1,0.4,0.2c0.4,0.5,0.1,1.5-0.7,1.3    C123.1,6.1,123,6,123,5.8c-0.1-0.3-0.1-0.6,0.1-0.8c0.1-0.1,0.2-0.2,0.3-0.3C123.4,4.7,123.5,4.7,123.5,4.7z"/>
	</g>
	<g>
		<defs>
			<path id="SVGID_1_" d="M121.8,5.6c0.2,0,0.4,0,0.6,0.1c0.5,0.1,1,0.4,1.5,0.6c0.2,0.1,0.4,0.1,0.6,0.3c0.3,0.2,0.2,0.8,0,1.1     c-0.2,0.2-0.5,0.4-0.8,0.6c-0.4,0.2-0.9,0.5-1.4,0.7c-0.6,0.1-1.1,0-1.6-0.4c-0.4-0.3-1.1-0.9-0.9-1.4c0.1-0.5,0.7-1,1.2-1.2     C121.2,5.7,121.5,5.6,121.8,5.6z"/>
		</defs>
		<use xlink:href="#SVGID_1_" overflow="visible" fill-rule="evenodd" clip-rule="evenodd" fill="#B8B9BB"/>
		<clipPath id="SVGID_2_">
			<use xlink:href="#SVGID_1_" overflow="visible"/>
		</clipPath>
		<path clip-path="url(#SVGID_2_)" fill-rule="evenodd" clip-rule="evenodd" fill="#A1A3A6" d="M125,6.8c0,0.7-0.3,1-0.9,1.2    c-0.5,0.1-1.3,1-2,1c-0.3,0-0.7,0-1-0.1c-0.2-0.1-0.6-0.5-0.9-0.8c-0.4-0.3-0.7-0.6-0.7-1.1c0,0,0.8,0.7,2.3,0.7S125,6.8,125,6.8z    "/>
	</g>
</g>
<g>
	<rect x="75" y="3.2" fill="#A6A6A6" width="9.3" height="9.3"/>
	<rect x="85.3" y="3.2" fill="#A6A6A6" width="9.3" height="9.3"/>
	<rect x="75" y="13.4" fill="#A6A6A6" width="9.3" height="9.3"/>
	<rect x="85.3" y="13.4" fill="#B8B9BB" width="9.3" height="9.3"/>
</g>
</svg>